<svg width="160" height="149" viewBox="0 0 160 149" fill="none" xmlns="http://www.w3.org/2000/svg">
<path d="M65.8233 125.983C65.8233 127.308 65.8233 128.963 65.4918 130.62L64.6636 146.682C64.6636 147.842 63.6702 148.835 62.5105 148.835L37.5062 148.67C36.3464 148.67 35.3531 147.677 35.3531 146.517L34.8564 133.269L11.0118 104.622C7.53377 100.979 5.05046 96.6739 4.38868 91.7058L4.22351 90.2157L0.0824831 49.9765C-0.247876 47.9897 0.413996 46.0019 2.0704 44.6781C3.89199 43.188 6.87203 42.6913 9.02533 45.1748C10.5154 46.9963 11.3436 52.4612 11.5088 53.9512C12.337 59.2508 13.3303 66.7022 13.4955 72.0006V73.1603C13.6607 75.4786 14.1574 77.6316 15.1519 79.7835C20.4515 91.3747 31.2145 106.113 31.2145 106.113L31.8764 106.941C32.3731 107.603 33.2013 107.769 33.8631 107.437C34.6913 106.941 34.8565 105.947 34.525 105.284L20.284 82.1019C18.7939 79.4521 19.6221 75.809 22.437 74.1537C25.252 72.4973 28.8952 73.3255 30.3852 75.9753L45.2881 95.0179C46.2814 96.3428 48.103 97.998 49.4279 98.9925C62.8407 108.597 64.4972 118.367 65.6558 123.335C65.6581 123.168 65.6581 124.328 65.8233 125.983ZM14.9861 47.9887C15.4828 49.4787 15.6479 50.8036 15.9795 52.1285C16.8077 56.5998 17.801 64.8795 17.9662 69.1846V70.5095C18.4629 70.0128 18.9596 69.6813 19.6226 69.3498C20.2845 68.8531 21.1127 68.5216 21.9409 68.3564C21.9409 68.3564 21.9409 68.1912 22.1061 68.1912C21.6094 64.0514 20.1193 56.1032 18.9595 52.1287C18.2976 50.1408 17.1391 48.6506 14.9858 47.9888L14.9861 47.9887ZM22.9343 53.6185C23.5961 56.5986 25.2525 62.2297 25.7492 65.0448L26.0807 67.0316V67.5283C27.2404 67.5283 28.5641 67.8598 29.7238 68.1901C29.3923 65.5404 27.5707 60.0757 26.9088 57.5921C26.2458 55.7717 25.0872 54.4468 22.9343 53.6185ZM124.443 146.516L124.94 133.269L148.786 104.621C152.264 100.978 154.747 96.6731 155.409 91.705L155.574 90.215L159.714 49.9758C159.879 47.989 159.217 46.0012 157.727 44.6762C155.905 43.1861 152.925 42.6894 150.772 45.1729C149.282 46.9945 148.454 52.4593 148.289 53.9493C147.46 59.2489 146.467 66.7003 146.302 71.9987V73.1584C146.137 75.4767 145.64 77.6297 144.645 79.7816C139.346 91.3728 128.583 106.111 128.583 106.111L127.92 107.104C127.423 107.766 126.595 107.932 125.933 107.601C125.105 107.104 124.94 106.111 125.271 105.448L139.512 82.2652C141.002 79.6154 140.174 75.9723 137.359 74.317C134.544 72.6606 130.901 73.4888 129.411 76.1385L114.508 95.1812C113.515 96.5061 111.693 98.1613 110.368 99.1558C96.9555 108.76 95.299 118.53 94.1404 123.498C94.1404 123.498 93.9752 124.658 93.9752 126.148C93.9752 127.473 93.9752 129.128 94.3067 130.784L95.1349 146.847C95.1349 148.007 96.1283 149 97.288 149L122.292 148.835C123.615 148.668 124.443 147.674 124.443 146.515L124.443 146.516ZM137.856 68.1908C138.684 68.5223 139.512 69.019 140.174 69.3505C140.836 69.682 141.334 70.1787 141.831 70.5102V69.1853C141.996 64.8802 142.99 56.6005 143.817 52.1292C143.982 50.8043 144.314 49.3142 144.811 47.9893C142.824 48.6512 141.499 50.1424 141.002 52.1292C139.843 56.2678 138.518 64.0509 137.856 68.1908ZM133.716 67.1974L134.048 65.2106C134.379 62.2305 136.201 56.7656 136.862 53.7844C134.876 54.4462 133.716 55.9374 133.054 57.9242C132.392 60.4076 130.571 65.8724 130.239 68.5222C131.399 68.0255 132.557 67.8603 133.882 67.8603C133.716 67.5277 133.716 67.3626 133.716 67.1974ZM108.546 32.2572V32.4223C108.711 32.919 108.877 33.4157 109.042 33.9124H130.901C131.563 33.9124 132.061 33.0842 131.563 32.5875L126.265 26.2959C126.099 26.1307 126.099 25.7992 126.265 25.634L131.564 19.0108C132.061 18.5141 131.564 17.6859 130.902 17.6859L109.042 17.6848C108.877 18.1815 108.711 18.8445 108.546 19.3412V19.5064L108.711 19.6715C110.532 21.3279 111.526 23.6461 111.526 26.1297C111.527 28.6143 110.367 30.601 108.546 32.2575L108.546 32.2572ZM51.2502 32.4223V32.2572C49.4286 30.6008 48.4352 28.2826 48.4352 25.799C48.4352 23.3154 49.4286 20.9974 51.4153 19.3409L51.5805 19.1757V19.0105C51.4153 18.5138 51.249 18.0171 51.0838 17.5204L28.8946 17.5193C28.2327 17.5193 27.7348 18.3475 28.2327 18.8442L33.5323 25.3023C33.6975 25.4675 33.6975 25.799 33.5323 25.9642L28.2327 32.5873C27.736 33.084 28.2327 33.9122 28.8946 33.9122H50.7535C50.9187 33.4156 51.0838 32.919 51.2502 32.4223ZM64.3315 64.2163L59.0319 63.8848L57.0451 58.9167C56.7136 57.9233 55.3887 57.9233 55.0583 58.9167L53.0716 63.8848L47.772 64.2163C46.7786 64.2163 46.4471 65.5412 47.1101 66.2031L51.25 69.6811L49.9251 74.8142C49.7599 75.8076 50.7533 76.6358 51.5815 75.9739L56.0528 73.159L60.5241 75.9739C61.3523 76.4706 62.5109 75.8087 62.1805 74.8142L60.8556 69.6811L64.9955 66.2031C65.8214 65.5412 65.3248 64.2163 64.3315 64.2163ZM86.0239 74.8143L84.8653 69.5159L89.0052 66.0378C89.8334 65.3759 89.3367 64.2162 88.3433 64.051L83.0437 63.7195L81.057 58.7514C80.7254 57.7581 79.4005 57.7581 79.0702 58.7514L77.0834 63.7195L71.6177 64.2162C70.6243 64.2162 70.2928 65.5411 70.9558 66.203L75.0956 69.6811L73.7707 74.8142C73.6056 75.8075 74.5989 76.6357 75.4271 75.9739L79.8985 73.1589L84.3698 75.9739C85.1968 76.4706 86.3554 75.6425 86.0239 74.8143ZM99.2717 75.974L103.743 73.159L108.214 75.974C109.043 76.4707 110.201 75.8088 109.871 74.8143L108.546 69.6812L112.686 66.2031C113.514 65.5412 113.017 64.3815 112.024 64.2163L106.724 63.8848L104.737 58.9167C104.406 57.9234 103.081 57.9234 102.751 58.9167L100.764 63.8848L95.4643 64.2163C94.4709 64.2163 94.1394 65.5412 94.8025 66.2031L98.9423 69.6812L97.6174 74.8143C97.2847 75.6425 98.4435 76.4707 99.2717 75.974ZM76.2542 84.0875L70.9546 83.756L68.9678 78.7879C68.6363 77.7945 67.3114 77.7945 66.9811 78.7879L64.9943 83.756L59.6947 84.0875C58.7013 84.0875 58.3698 85.4124 59.0329 86.0742L63.1727 89.5523L61.8478 94.6854C61.6826 95.6788 62.676 96.507 63.5042 95.8451L67.9755 93.0302L72.4468 95.8451C73.275 96.3418 74.4336 95.6799 74.1032 94.6854L72.7784 89.5523L76.9182 86.0742C77.7441 85.4124 77.2476 84.0875 76.2542 84.0875ZM97.9466 94.5202L96.6217 89.3871L100.762 85.909C101.59 85.2471 101.093 84.0874 100.1 83.9222L94.8001 83.5907L92.8134 78.6226C92.4818 77.6292 91.1569 77.6292 90.8266 78.6226L88.8398 83.5907L83.5402 83.9222C82.5469 83.9222 82.2153 85.2471 82.8784 85.909L87.0182 89.3871L85.6933 94.5202C85.5281 95.5135 86.5215 96.3418 87.3497 95.6799L91.821 92.8649L96.2924 95.6799C97.2846 96.3418 98.2781 95.5135 97.9466 94.5202ZM67.643 25.7989C67.643 19.0092 73.1076 13.5446 79.8972 13.5446C86.6869 13.5446 92.1515 19.0092 92.1515 25.7989C92.1515 32.5885 86.6869 38.0531 79.8972 38.0531C73.1076 37.8867 67.643 32.422 67.643 25.7989ZM72.6111 26.2956L78.0757 31.7601L87.1836 22.6522L84.3687 19.8373L78.0759 26.1301L75.4261 23.4803L72.6111 26.2956ZM66.153 47.16C64.1662 47.4916 62.1784 46.0003 62.1784 43.8485V42.5236C62.1784 41.0335 61.0187 39.7086 59.695 39.377L58.3701 39.0455C56.3834 38.5488 55.39 36.2305 56.2171 34.4089L56.7137 33.084C57.2104 31.7591 56.8789 30.1039 55.8855 29.1094L54.8922 28.2812C53.4021 26.9563 53.4021 24.4729 54.8922 23.1481L55.8855 22.3199C57.0452 21.3265 57.3756 19.8365 56.7137 18.3454L56.2171 17.0205C55.3889 15.0337 56.5486 12.8806 58.5353 12.3839L59.8602 12.0524C61.3503 11.7208 62.3436 10.3959 62.3436 8.90578V7.58089C62.5088 5.42782 64.3304 3.93783 66.3182 4.43432L67.6431 4.59949C69.1331 4.93101 70.6232 4.1028 71.2861 2.94309L71.948 1.78337C72.9414 -0.038219 75.2596 -0.534881 76.9161 0.623653L78.0758 1.45186C79.2355 2.28006 80.8907 2.28006 82.0503 1.45186L83.2101 0.623653C84.8665 -0.536063 87.1846 -0.038219 88.1782 1.78337L88.84 2.94309C89.5019 4.26798 90.9931 4.92985 92.4831 4.76467L93.808 4.5995C95.7947 4.26798 97.7825 5.75921 97.7825 7.91107V9.23597C97.7825 10.726 98.9422 12.0509 100.266 12.3825L101.591 12.7141C103.578 13.2107 104.571 15.529 103.744 17.3507L103.247 18.6756C102.751 20.0005 103.082 21.6557 104.075 22.6501L105.069 23.4783C106.559 24.8032 106.559 27.2867 105.069 28.6114L104.075 29.4396C102.916 30.433 102.585 31.923 103.247 33.4142L103.744 34.739C104.572 36.7258 103.412 38.8789 101.426 39.3757L100.265 39.542C98.7747 39.8735 97.7814 41.1984 97.7814 42.6886V44.0135C97.6162 46.1665 95.7946 47.6565 93.8068 47.16L92.4819 46.9949C90.9919 46.6633 89.5018 47.4916 88.8389 48.6513L88.177 49.811C87.1836 51.6326 84.8654 52.1292 83.2089 50.9707L82.0492 50.1425C80.8895 49.3143 79.2342 49.3143 78.0746 50.1425L76.9149 50.9707C75.2585 52.1304 72.9404 51.6326 71.9468 49.811L71.285 48.6513C70.6231 47.3264 69.1319 46.6645 67.6419 46.8297L66.153 47.16ZM79.8972 42.6887C89.1702 42.6887 96.7881 35.0708 96.7881 25.7979C96.7881 16.5249 89.1702 8.90706 79.8972 8.90706C70.6243 8.90706 63.0064 16.5249 63.0064 25.7979C63.0064 35.072 70.6243 42.6887 79.8972 42.6887Z" fill="#D27531"/>
</svg>
