<svg width="136" height="170" viewBox="0 0 136 170" fill="none" xmlns="http://www.w3.org/2000/svg">
<path d="M121.112 22.8344C102.73 37.9871 85.3967 54.386 69.2318 71.9168C63.0353 66.3 56.7713 60.7512 50.3318 55.4336C49.9268 55.0664 48.8873 55.5016 48.0098 56.3856C47.1323 57.2696 46.6598 58.3304 47.0513 58.7384L47.1458 58.8608C53.3648 66.5584 59.7908 74.052 66.4238 81.3416C67.1903 82.1887 68.2593 82.6946 69.3959 82.7482C70.5324 82.8017 71.6436 82.3985 72.4853 81.6272L72.7823 81.3416C91.3405 64.2294 108.643 45.7848 124.555 26.1528C124.879 25.704 124.447 24.6568 123.556 23.7456C122.665 22.8344 121.612 22.3856 121.166 22.7392L121.112 22.8344Z" fill="#D27531"/>
<path d="M13.2473 84.9727C15.2167 91.2668 18.2044 97.1899 22.0898 102.503C27.8352 110.473 35.4974 116.84 44.3566 121.007C53.2158 125.173 62.9811 127.003 72.7349 126.323C82.4887 125.643 91.9108 122.476 100.116 117.12C108.321 111.764 115.04 104.394 119.641 95.7031C125.563 84.3507 127.531 71.3244 125.23 58.7111C125.171 58.0479 124.855 57.435 124.348 57.0067C123.842 56.5785 123.188 56.3698 122.53 56.4263C121.91 56.6077 121.38 57.014 121.041 57.5667C120.702 58.1194 120.578 58.7791 120.694 59.4183V59.8263C121.832 71.2256 119.254 82.6882 113.35 92.4799C107.502 102.086 98.6851 109.493 88.2533 113.56C77.9362 117.513 66.6174 117.953 56.0288 114.811C45.5246 111.686 36.3436 105.143 29.9198 96.2063C16.7033 78.5943 17.4863 52.1151 31.6748 35.0063C38.7676 26.2994 48.4747 20.1476 59.3363 17.4759C70.4411 14.8731 82.0865 16.0052 92.4923 20.6991C93.0768 20.9898 93.7459 21.0577 94.3761 20.8902C95.0064 20.7227 95.5552 20.3312 95.9213 19.7879C96.055 19.4755 96.1261 19.1395 96.1306 18.7993C96.135 18.4591 96.0728 18.1213 95.9473 17.8054C95.8219 17.4895 95.6358 17.2017 95.3997 16.9584C95.1635 16.7152 94.882 16.5213 94.5713 16.3879L94.1933 16.1839C82.931 10.2271 70.0074 8.25839 57.5003 10.5943C44.6838 13.0465 33.0764 19.8176 24.5854 29.7951C16.0944 39.7726 11.2248 52.363 10.7768 65.4975C10.5519 72.081 11.3862 78.6578 13.2473 84.9727Z" fill="#D27531"/>
</svg>
