<svg width="124" height="123" viewBox="0 0 124 123" fill="none" xmlns="http://www.w3.org/2000/svg">
<g clip-path="url(#clip0_7_165)">
<path d="M123.328 35.4894L106.527 3.36332C105.547 1.49141 103.01 -0.0422422 100.9 -0.0422422H62.2317C62.1894 -0.0460859 62.1472 -0.0537734 62.1049 -0.0576172C62.0703 -0.0576172 62.0357 -0.0460859 62.0011 -0.0422422H24.0249C21.9108 -0.0422422 19.3701 1.48757 18.3745 3.35179L1.61964 34.859C0.624107 36.7271 0.823982 39.656 2.05398 41.378L59.7141 121.755C60.3329 122.616 61.1555 123.054 61.9742 123.054C62.7891 123.054 63.6039 122.631 64.2305 121.782L122.836 41.993C124.085 40.2864 124.308 37.3651 123.328 35.4932V35.4894ZM114.157 34.5477H93.5621L101.811 10.9317L114.157 34.5477ZM70.0691 7.6491H94.8075L87.1315 29.62L70.0691 7.6491ZM81.2275 34.5477H45.4768L62.3739 10.2705L81.2275 34.5477ZM38.6657 30.8807L30.9551 7.6491H54.8364L38.6657 30.8807ZM82.7305 42.2352L62.0664 101.398L42.4326 42.2352H82.7305ZM53.4449 99.8261L12.1323 42.2352H34.3338L53.4449 99.8261ZM90.8754 42.2352H113.119L70.7226 99.9606L90.8754 42.2352ZM23.602 9.8977L31.7815 34.5477H10.491L23.602 9.8977Z" fill="#D27531"/>
</g>
<defs>
<clipPath id="clip0_7_165">
<rect width="123" height="123" fill="white" transform="translate(0.962402)"/>
</clipPath>
</defs>
</svg>
